# xmcd
#
# Track frame offsets:
#	150
#	15075
#	31425
#	42975
#	55125
#	68325
#	83700
#	95250
#	104250
#	124200
#	153750
#	167925
#	181800
#	194025
#	199575
#	208125
#	218475
#	229275
#	257250
#	266250
#	279300
#	291225
#	313125
#
# Disc length: 4396 seconds
#
# Revision: 1
# Processed by: cddbd v1.4PL0 Copyright (c) Steve Scherf et al.
# Submitted via: audiograbber 1.82.01
#
DISCID=38112a17
DTITLE=Nasri Shames El Dine - Tahiyya
DYEAR=1900
DGENRE=
TTITLE0=Kif Halon
TTITLE1=Mnitza3al W Mintrada
TTITLE2=3ala 3ayn El Mayyi Ya Sabiyye
TTITLE3=Ya Marek 3al Tahawin
TTITLE4=Ze3let Halimeh
TTITLE5=Minkoul Khlesna
TTITLE6=Rakastak Bil Eid
TTITLE7=Chifta W Janayt
TTITLE8=Eltelha
TTITLE9=3edouli Ya Jama3a
TTITLE10=Eshhadi Ya Byout
TTITLE11=Rah El Chaher w Tal El Chaher
TTITLE12=Ya Helwe 3al Jeser
TTITLE13=Nater Ana Nater
TTITLE14=3ala Dal3ouna
TTITLE15=3al Hob El Hob
TTITLE16=Laylet El Mahata
TTITLE17=Jayin Min Blad El Gherbeh
TTITLE18=Bared El Takes
TTITLE19=Tes2al 3anni
TTITLE20=Hala Ya Layla
TTITLE21=El Dafater
TTITLE22=3ala Wastek Leffi Mandilik
EXTD=
EXTT0=
EXTT1=
EXTT2=
EXTT3=
EXTT4=
EXTT5=
EXTT6=
EXTT7=
EXTT8=
EXTT9=
EXTT10=
EXTT11=
EXTT12=
EXTT13=
EXTT14=
EXTT15=
EXTT16=
EXTT17=
EXTT18=
EXTT19=
EXTT20=
EXTT21=
EXTT22=
PLAYORDER=
